<svg version="1.1" xmlns="http://www.w3.org/2000/svg" viewBox="-2730.378230640411 -1060.8640625 6776.202582141876 2809.856164550781"><desc>Created with Snap</desc><defs></defs><g><g transform="matrix(24.4211,0,0,24.4211,-2545.2837,-875.7695)"><g><path d="M78.4,66.5c-5.5,4.8-9.9,15.2-9.9,15.2s-6.9-11.4-12.9-15.3c-9.5-6.1-13.6-6.2-13.6-6.2V65c0,0,7.8,1.2,11.7,4.6   c8.2,7.1,14.8,18.5,14.8,18.5S74.4,75,80.1,70.5C88.1,64.3,95,65,95,65v-4.8C95,60.1,85.1,60.7,78.4,66.5z" fill="#f4b41a" style=""></path><path d="M42,80c-6.4-3.6-17.8-4.3-17.8-4.3s8.7-10.1,10.5-17C37.5,47.9,36.2,44,36.2,44l-4.6,1.6c0,0,1.3,7.7-0.6,12.4   c-4.1,9.9-13,19.8-13,19.8s14.6,1.3,20.7,5.1c8.6,5.4,10.2,12,10.2,12l4.6-1.6C53.5,93.4,49.7,84.4,42,80z" fill="#f4b41a" style=""></path><path d="M35.3,36.8c11.3-0.9,14.6-3.4,14.6-3.4l-3-3.8c0,0-6.9,3.7-12.1,3.4c-10.9-0.6-23.3-5.6-23.3-5.6s3.5,14,1.8,20.9   C10.9,58.2,5,61.8,5,61.8l3,3.8c0,0,7.5-6.5,9.1-15.1c1.3-7.1-1.7-18-1.7-18S28,37.4,35.3,36.8z" fill="#f4b41a" style=""></path><path d="M37.4,17.8c7.3-1.1,16.7-7.4,16.7-7.4s-0.6,13.2,2.4,19.8c4.6,10.2,8,12.5,8,12.5l2.7-4c0,0-5.9-5.2-7.3-10.2   C56.9,18.2,57.7,5,57.7,5s-12.3,7.8-19.5,8.5c-10.2,1-15.6-3.3-15.6-3.3l-2.7,4.1C19.9,14.2,28.6,19.1,37.4,17.8z" fill="#f4b41a" style=""></path><path d="M65,60.5c0,0,3.1-7.2,7.4-10.1c9-6.1,21.9-9.7,21.9-9.7s-11.5-8.9-14.5-15.4c-4.2-9.1-1.9-15.6-1.9-15.6l-4.8-1.2   c0,0-1.9,9.6,2.2,17.4c3.4,6.4,12.5,13.2,12.5,13.2S75,42.9,69.6,47.8c-8.3,7.6-9.4,11.5-9.4,11.5L65,60.5z" fill="#f4b41a" style=""></path></g><desc>Created with Snap</desc><defs></defs></g><g><g transform="matrix(1.024,0,0,-1.024,0,0)"><path d="M441 259Q441 350 396 399Q351 448 276 448Q234 448 210 445Q187 442 173 438L173 110Q190 96 222 83Q254 70 292 70Q332 70 360 84Q389 99 407 124Q425 150 433 184Q441 219 441 259ZM538 259Q538 200 522 150Q507 100 477 64Q447 28 403 8Q360 -12 304 -12Q259 -12 224 0Q190 12 173 23L173 -185L80 -185L80 504Q113 512 162 521Q212 531 277 531Q337 531 385 512Q433 493 467 458Q501 423 519 372Q538 322 538 259ZM845 67Q878 67 903 68Q929 70 946 74L946 229Q936 234 913 237Q891 241 859 241Q838 241 814 238Q791 235 771 225Q752 216 739 199Q726 183 726 156Q726 106 758 86Q790 67 845 67ZM837 533Q893 533 931 518Q970 504 993 477Q1017 451 1027 414Q1037 378 1037 334L1037 9Q1025 7 1003 3Q982 0 955 -3Q928 -6 896 -9Q865 -11 834 -11Q790 -11 753 -2Q716 7 689 26Q662 46 647 78Q632 110 632 155Q632 198 649 229Q667 260 697 279Q727 298 767 307Q807 316 851 316Q865 316 880 314Q895 313 908 310Q922 308 932 306Q942 304 946 303L946 329Q946 352 941 374Q936 397 923 414Q910 432 887 442Q865 453 829 453Q783 453 748 446Q714 440 697 433L686 510Q704 518 746 525Q788 533 837 533ZM1312 67Q1369 67 1396 82Q1424 97 1424 130Q1424 164 1397 184Q1370 204 1308 229Q1278 241 1250 253Q1223 266 1203 283Q1183 300 1171 324Q1159 348 1159 383Q1159 452 1210 492Q1261 533 1349 533Q1371 533 1393 530Q1415 528 1434 524Q1453 521 1467 517Q1482 513 1490 510L1473 430Q1458 438 1426 446Q1394 455 1349 455Q1310 455 1281 439Q1252 424 1252 391Q1252 374 1258 361Q1265 348 1278 337Q1292 327 1312 318Q1332 309 1360 299Q1397 285 1426 271Q1455 258 1475 240Q1496 222 1507 196Q1518 171 1518 134Q1518 62 1464 25Q1411 -12 1312 -12Q1243 -12 1204 -1Q1165 11 1151 17L1168 97Q1184 91 1219 79Q1254 67 1312 67ZM1758 67Q1815 67 1842 82Q1870 97 1870 130Q1870 164 1843 184Q1816 204 1754 229Q1724 241 1696 253Q1669 266 1649 283Q1629 300 1617 324Q1605 348 1605 383Q1605 452 1656 492Q1707 533 1795 533Q1817 533 1839 530Q1861 528 1880 524Q1899 521 1913 517Q1928 513 1936 510L1919 430Q1904 438 1872 446Q1840 455 1795 455Q1756 455 1727 439Q1698 424 1698 391Q1698 374 1704 361Q1711 348 1724 337Q1738 327 1758 318Q1778 309 1806 299Q1843 285 1872 271Q1901 258 1921 240Q1942 222 1953 196Q1964 171 1964 134Q1964 62 1910 25Q1857 -12 1758 -12Q1689 -12 1650 -1Q1611 11 1597 17L1614 97Q1630 91 1665 79Q1700 67 1758 67ZM2176 520L2176 0L2083 0L2083 520L2176 520ZM2129 614Q2104 614 2086 630Q2069 647 2069 675Q2069 703 2086 719Q2104 736 2129 736Q2154 736 2171 719Q2189 703 2189 675Q2189 647 2171 630Q2154 614 2129 614ZM2795 260Q2795 198 2777 148Q2759 98 2726 62Q2694 26 2649 6Q2604 -13 2551 -13Q2498 -13 2453 6Q2408 26 2375 62Q2343 98 2325 148Q2307 198 2307 260Q2307 321 2325 371Q2343 422 2375 458Q2408 494 2453 513Q2498 533 2551 533Q2604 533 2649 513Q2694 494 2726 458Q2759 422 2777 371Q2795 321 2795 260ZM2698 260Q2698 348 2658 399Q2619 451 2551 451Q2483 451 2443 399Q2404 348 2404 260Q2404 172 2443 120Q2483 69 2551 69Q2619 69 2658 120Q2698 172 2698 260ZM2926 0L2926 505Q2958 513 3011 522Q3064 531 3133 531Q3195 531 3236 513Q3277 496 3301 464Q3326 433 3336 389Q3346 345 3346 292L3346 0L3253 0L3253 272Q3253 320 3246 354Q3240 388 3225 409Q3210 430 3185 439Q3160 449 3123 449Q3108 449 3092 448Q3076 447 3061 445Q3047 444 3035 442Q3024 440 3019 439L3019 0L2926 0Z" fill="#143d59" style=""></path></g></g><g transform="matrix(1,0,0,1,0,1250.3041)"><g transform="matrix(1.024,0,0,-1.024,0,0)"><path d="M441 259Q441 350 396 399Q351 448 276 448Q234 448 210 445Q187 442 173 438L173 110Q190 96 222 83Q254 70 292 70Q332 70 360 84Q389 99 407 124Q425 150 433 184Q441 219 441 259ZM538 259Q538 200 522 150Q507 100 477 64Q447 28 403 8Q360 -12 304 -12Q259 -12 224 0Q190 12 173 23L173 -185L80 -185L80 504Q113 512 162 521Q212 531 277 531Q337 531 385 512Q433 493 467 458Q501 423 519 372Q538 322 538 259ZM861 531Q873 531 888 529Q904 528 919 525Q934 523 946 520Q959 518 965 516L949 435Q938 439 912 444Q887 450 847 450Q821 450 795 444Q770 439 762 437L762 0L669 0L669 498Q702 510 751 520Q800 531 861 531ZM1514 260Q1514 198 1496 148Q1478 98 1445 62Q1413 26 1368 6Q1323 -13 1270 -13Q1217 -13 1172 6Q1127 26 1094 62Q1062 98 1044 148Q1026 198 1026 260Q1026 321 1044 371Q1062 422 1094 458Q1127 494 1172 513Q1217 533 1270 533Q1323 533 1368 513Q1413 494 1445 458Q1478 422 1496 371Q1514 321 1514 260ZM1417 260Q1417 348 1377 399Q1338 451 1270 451Q1202 451 1162 399Q1123 348 1123 260Q1123 172 1162 120Q1202 69 1270 69Q1338 69 1377 120Q1417 172 1417 260ZM1560 -187Q1548 -187 1529 -184Q1510 -181 1497 -176L1509 -100Q1519 -103 1532 -105Q1545 -107 1556 -107Q1604 -107 1624 -78Q1645 -48 1645 9L1645 520L1738 520L1738 10Q1738 -90 1692 -139Q1647 -187 1560 -187ZM1691 614Q1666 614 1648 630Q1631 647 1631 675Q1631 703 1648 719Q1666 736 1691 736Q1716 736 1733 719Q1751 703 1751 675Q1751 647 1733 630Q1716 614 1691 614ZM1869 259Q1869 328 1889 379Q1909 431 1942 465Q1975 499 2018 516Q2061 533 2106 533Q2211 533 2267 467Q2323 402 2323 268Q2323 262 2323 252Q2323 243 2322 235L1966 235Q1972 154 2013 112Q2054 70 2141 70Q2190 70 2223 78Q2257 87 2274 95L2287 17Q2270 8 2227 -2Q2185 -12 2131 -12Q2063 -12 2013 8Q1964 29 1932 65Q1900 101 1884 150Q1869 200 1869 259ZM1968 310L2226 310Q2227 373 2194 413Q2162 454 2105 454Q2073 454 2048 441Q2024 429 2007 409Q1990 389 1980 363Q1971 337 1968 310ZM2683 -12Q2620 -12 2572 8Q2525 28 2492 64Q2460 100 2444 149Q2428 199 2428 259Q2428 319 2445 369Q2463 419 2495 455Q2527 492 2573 512Q2620 533 2677 533Q2712 533 2747 527Q2782 521 2814 508L2793 429Q2772 439 2744 445Q2717 451 2686 451Q2608 451 2566 402Q2525 353 2525 259Q2525 217 2534 182Q2544 147 2564 122Q2585 97 2617 83Q2649 70 2695 70Q2732 70 2762 77Q2792 84 2809 92L2822 14Q2814 9 2799 4Q2784 0 2765 -4Q2746 -7 2724 -10Q2703 -12 2683 -12ZM3009 681L3009 520L3206 520L3206 442L3009 442L3009 202Q3009 163 3015 137Q3021 112 3033 97Q3045 83 3063 77Q3081 71 3105 71Q3147 71 3172 80Q3198 90 3208 94L3226 17Q3212 10 3177 -1Q3142 -11 3097 -11Q3044 -11 3009 2Q2975 16 2954 43Q2933 70 2924 109Q2916 149 2916 201L2916 665L3009 681ZM3445 67Q3502 67 3529 82Q3557 97 3557 130Q3557 164 3530 184Q3503 204 3441 229Q3411 241 3383 253Q3356 266 3336 283Q3316 300 3304 324Q3292 348 3292 383Q3292 452 3343 492Q3394 533 3482 533Q3504 533 3526 530Q3548 528 3567 524Q3586 521 3600 517Q3615 513 3623 510L3606 430Q3591 438 3559 446Q3527 455 3482 455Q3443 455 3414 439Q3385 424 3385 391Q3385 374 3391 361Q3398 348 3411 337Q3425 327 3445 318Q3465 309 3493 299Q3530 285 3559 271Q3588 258 3608 240Q3629 222 3640 196Q3651 171 3651 134Q3651 62 3597 25Q3544 -12 3445 -12Q3376 -12 3337 -1Q3298 11 3284 17L3301 97Q3317 91 3352 79Q3387 67 3445 67Z" fill="#143d59" style=""></path></g></g></g></svg>